# xmcd
#
# Track frame offsets: 
#        150
#        24859
#        48067
#        69239
#        105002
#        128159
#        142762
#        190594
#        215689
#        231072
#        244439
#        269002
#        293637
#        316794
#
# Disc length: 4526 seconds
#
# Revision: 0
# Processed by: cddbd v1.5.2PL0 Copyright (c) Steve Scherf et al.
# Submitted via: ExactAudioCopy v0.99pb3
#
DISCID=b611ac0e
DTITLE=Kirk Fletcher - I'm Here and I'm Gone
DYEAR=1900
DGENRE=Blues
TTITLE0=I Ain't Doing Nothing Wrong
TTITLE1=What Is Going On
TTITLE2=Church Street Boogie
TTITLE3=I'm Not Your Fool
TTITLE4=What Happend To You
TTITLE5=School Street Shuffle
TTITLE6=Silver Spoon
TTITLE7=You Went Back On Your Word
TTITLE8=Mr Mann
TTITLE9=Bye Bye So Long
TTITLE10=Watsonized
TTITLE11=I Ani't Doing Nothing Wrong (mono)
TTITLE12=What Is Going On (mono)
TTITLE13=What Happend To You (mono)
EXTD=
EXTT0=
EXTT1=
EXTT2=
EXTT3=
EXTT4=
EXTT5=
EXTT6=
EXTT7=
EXTT8=
EXTT9=
EXTT10=
EXTT11=
EXTT12=
EXTT13=
PLAYORDER=
